<svg width="95" height="102" viewBox="0 0 95 102" fill="none" xmlns="http://www.w3.org/2000/svg">
<path d="M82.8256 42.1939C82.8256 71.7297 47.3289 97.0462 47.3289 97.0462C47.3289 97.0462 11.8322 71.7297 11.8322 42.1939C11.8322 32.1224 15.572 22.4634 22.229 15.3418C28.8859 8.22013 37.9146 4.21924 47.3289 4.21924C56.7432 4.21924 65.7719 8.22013 72.4289 15.3418C79.0858 22.4634 82.8256 32.1224 82.8256 42.1939Z" stroke="black" stroke-width="2" stroke-linecap="round" stroke-linejoin="round"/>
<path d="M47.3289 54.8521C53.8637 54.8521 59.1612 49.1848 59.1612 42.1939C59.1612 35.2029 53.8637 29.5356 47.3289 29.5356C40.7942 29.5356 35.4967 35.2029 35.4967 42.1939C35.4967 49.1848 40.7942 54.8521 47.3289 54.8521Z" stroke="black" stroke-width="2" stroke-linecap="round" stroke-linejoin="round"/>
</svg>
