<svg width="97" height="104" viewBox="0 0 97 104" fill="none" xmlns="http://www.w3.org/2000/svg">
<path d="M59.6312 20.355C64.0574 21.2771 68.1252 23.5885 71.3141 26.9934C74.5029 30.3983 76.6676 34.7418 77.5312 39.468M59.6312 1C68.8271 2.09083 77.4025 6.48798 83.9491 13.4695C90.4958 20.451 94.6247 29.6018 95.6579 39.4196M91.1262 78.0328V92.549C91.1313 93.8966 90.8728 95.2305 90.3672 96.4652C89.8616 97.7 89.12 98.8083 88.19 99.7194C87.26 100.63 86.1621 101.324 84.9665 101.756C83.771 102.187 82.5041 102.348 81.2472 102.226C67.3025 100.609 53.9077 95.5207 42.1389 87.3715C31.1897 79.9424 21.9066 70.0303 14.949 58.3391C7.29037 45.7158 2.52427 31.3437 1.03678 16.3872C0.923538 15.0491 1.07247 13.7005 1.47409 12.4273C1.87571 11.154 2.52122 9.98404 3.36953 8.99177C4.21783 7.9995 5.25034 7.2067 6.40132 6.66385C7.5523 6.12101 8.79653 5.84001 10.0548 5.83874H23.6498C25.849 5.81563 27.9811 6.64719 29.6486 8.17843C31.3161 9.70967 32.4053 11.8361 32.7131 14.1614C33.2869 18.8069 34.3511 23.3682 35.8853 27.7582C36.495 29.4901 36.6269 31.3724 36.2655 33.1819C35.9041 34.9914 35.0644 36.6524 33.846 37.968L28.0908 44.1132C34.5419 56.2272 43.9355 66.2574 55.2808 73.1456L61.036 67.0004C62.2681 65.6995 63.8236 64.8029 65.5183 64.417C67.213 64.0311 68.9758 64.172 70.5978 64.823C74.7092 66.4612 78.981 67.5974 83.3317 68.2101C85.5331 68.5417 87.5435 69.7256 88.9806 71.5367C90.4177 73.3478 91.1813 75.6597 91.1262 78.0328Z" stroke="black" stroke-width="2" stroke-linecap="round" stroke-linejoin="round"/>
</svg>
