<svg width="446" height="153" viewBox="0 0 446 153" fill="none" xmlns="http://www.w3.org/2000/svg">
<path d="M28.196 20.0938H21.9744C21.8608 19.2888 21.6288 18.5739 21.2784 17.9489C20.928 17.3144 20.4782 16.7746 19.929 16.3295C19.3797 15.8845 18.7453 15.5436 18.0256 15.3068C17.3153 15.0701 16.5436 14.9517 15.7102 14.9517C14.2045 14.9517 12.893 15.3258 11.7756 16.0739C10.6581 16.8125 9.79167 17.892 9.17614 19.3125C8.56061 20.7235 8.25284 22.4375 8.25284 24.4545C8.25284 26.5284 8.56061 28.2708 9.17614 29.6818C9.80114 31.0928 10.6723 32.1581 11.7898 32.8778C12.9072 33.5975 14.1998 33.9574 15.6676 33.9574C16.4915 33.9574 17.2538 33.8485 17.9545 33.6307C18.6648 33.4129 19.2945 33.0956 19.8438 32.679C20.393 32.2528 20.8475 31.7367 21.2074 31.1307C21.5767 30.5246 21.8324 29.8333 21.9744 29.0568L28.196 29.0852C28.035 30.4205 27.6326 31.7083 26.9886 32.9489C26.3542 34.1799 25.4972 35.2831 24.4176 36.2585C23.3475 37.2244 22.0691 37.9915 20.5824 38.5597C19.1051 39.1184 17.4337 39.3977 15.5682 39.3977C12.9735 39.3977 10.6534 38.8106 8.60795 37.6364C6.57197 36.4621 4.96212 34.7623 3.77841 32.5369C2.60417 30.3116 2.01705 27.6174 2.01705 24.4545C2.01705 21.2822 2.61364 18.5833 3.80682 16.358C5 14.1326 6.61932 12.4375 8.66477 11.2727C10.7102 10.0985 13.0114 9.51136 15.5682 9.51136C17.2538 9.51136 18.8163 9.74811 20.2557 10.2216C21.7045 10.6951 22.9877 11.3864 24.1051 12.2955C25.2225 13.1951 26.1316 14.2983 26.8324 15.6051C27.5426 16.9119 27.9972 18.4081 28.196 20.0938ZM31.4986 14.9801V9.90909H55.3906V14.9801H46.4844V39H40.4048V14.9801H31.4986ZM59.3253 39V9.90909H70.8026C73.009 9.90909 74.8887 10.3305 76.4418 11.1733C77.9948 12.0066 79.1785 13.1667 79.9929 14.6534C80.8168 16.1307 81.2287 17.8352 81.2287 19.767C81.2287 21.6989 80.812 23.4034 79.9787 24.8807C79.1454 26.358 77.938 27.5085 76.3565 28.3324C74.7846 29.1562 72.8812 29.5682 70.6463 29.5682H63.331V24.6392H69.652C70.8357 24.6392 71.8111 24.4356 72.5781 24.0284C73.3546 23.6117 73.9323 23.0388 74.3111 22.3097C74.6993 21.571 74.8935 20.7235 74.8935 19.767C74.8935 18.8011 74.6993 17.9583 74.3111 17.2386C73.9323 16.5095 73.3546 15.946 72.5781 15.5483C71.8016 15.1411 70.8168 14.9375 69.6236 14.9375H65.4759V39H59.3253ZM111.957 24.4545C111.957 27.6269 111.355 30.3258 110.153 32.5511C108.96 34.7765 107.331 36.4763 105.266 37.6506C103.211 38.8153 100.901 39.3977 98.3345 39.3977C95.7493 39.3977 93.4292 38.8106 91.3743 37.6364C89.3194 36.4621 87.6953 34.7623 86.5021 32.5369C85.3089 30.3116 84.7124 27.6174 84.7124 24.4545C84.7124 21.2822 85.3089 18.5833 86.5021 16.358C87.6953 14.1326 89.3194 12.4375 91.3743 11.2727C93.4292 10.0985 95.7493 9.51136 98.3345 9.51136C100.901 9.51136 103.211 10.0985 105.266 11.2727C107.331 12.4375 108.96 14.1326 110.153 16.358C111.355 18.5833 111.957 21.2822 111.957 24.4545ZM105.721 24.4545C105.721 22.3996 105.413 20.6667 104.798 19.2557C104.192 17.8447 103.335 16.7746 102.227 16.0455C101.119 15.3163 99.8213 14.9517 98.3345 14.9517C96.8478 14.9517 95.5504 15.3163 94.4425 16.0455C93.3345 16.7746 92.4728 17.8447 91.8572 19.2557C91.2512 20.6667 90.9482 22.3996 90.9482 24.4545C90.9482 26.5095 91.2512 28.2424 91.8572 29.6534C92.4728 31.0644 93.3345 32.1345 94.4425 32.8636C95.5504 33.5928 96.8478 33.9574 98.3345 33.9574C99.8213 33.9574 101.119 33.5928 102.227 32.8636C103.335 32.1345 104.192 31.0644 104.798 29.6534C105.413 28.2424 105.721 26.5095 105.721 24.4545ZM116.513 9.90909H122.649V28.2045H122.891L135.462 9.90909H140.845V39H134.695V20.6903H134.482L121.839 39H116.513V9.90909ZM131.513 2.29545H135.732C135.722 4.01894 135.083 5.40625 133.814 6.45739C132.554 7.50852 130.85 8.03409 128.7 8.03409C126.541 8.03409 124.832 7.50852 123.572 6.45739C122.313 5.40625 121.683 4.01894 121.683 2.29545H125.874C125.864 2.94886 126.072 3.53598 126.499 4.05682C126.934 4.57765 127.668 4.83807 128.7 4.83807C129.704 4.83807 130.424 4.58239 130.859 4.07102C131.295 3.55966 131.513 2.9678 131.513 2.29545ZM145.927 9.90909H153.512L161.523 29.4545H161.864L169.876 9.90909H177.461V39H171.495V20.0653H171.254L163.725 38.858H159.663L152.134 19.9943H151.893V39H145.927V9.90909ZM187.543 39H180.952L190.994 9.90909H198.92L208.949 39H202.358L195.071 16.5568H194.844L187.543 39ZM187.131 27.5653H202.699V32.3665H187.131V27.5653ZM207.788 14.9801V9.90909H231.68V14.9801H222.773V39H216.694V14.9801H207.788ZM235.614 39V9.90909H255.217V14.9801H241.765V21.9119H254.208V26.983H241.765V33.929H255.273V39H235.614ZM260.107 39V9.90909H271.584C273.79 9.90909 275.67 10.3305 277.223 11.1733C278.776 12.0066 279.96 13.1667 280.774 14.6534C281.598 16.1307 282.01 17.8352 282.01 19.767C282.01 21.6989 281.593 23.4034 280.76 24.8807C279.927 26.358 278.719 27.5085 277.138 28.3324C275.566 29.1562 273.662 29.5682 271.428 29.5682H264.112V24.6392H270.433C271.617 24.6392 272.592 24.4356 273.359 24.0284C274.136 23.6117 274.714 23.0388 275.092 22.3097C275.481 21.571 275.675 20.7235 275.675 19.767C275.675 18.8011 275.481 17.9583 275.092 17.2386C274.714 16.5095 274.136 15.946 273.359 15.5483C272.583 15.1411 271.598 14.9375 270.405 14.9375H266.257V39H260.107ZM286.005 9.90909H292.141V28.2045H292.383L304.954 9.90909H310.337V39H304.187V20.6903H303.974L291.332 39H286.005V9.90909ZM320.433 39H313.842L323.885 9.90909H331.811L341.839 39H335.249L327.962 16.5568H327.734L320.433 39ZM320.021 27.5653H335.589V32.3665H320.021V27.5653ZM343.764 39V34.0568L344.588 33.9858C345.649 33.9006 346.506 33.4981 347.159 32.7784C347.813 32.0492 348.3 30.8892 348.622 29.2983C348.954 27.6979 349.167 25.5483 349.261 22.8494L349.744 9.90909H369.489V39H363.509V14.8381H355.455L355 24.9659C354.848 28.2235 354.46 30.8845 353.835 32.9489C353.22 35.0133 352.235 36.5379 350.881 37.5227C349.536 38.5076 347.694 39 345.355 39H343.764ZM378.608 20.6619H385.54C387.85 20.6619 389.839 21.036 391.506 21.7841C393.182 22.5227 394.474 23.5691 395.384 24.9233C396.293 26.2775 396.742 27.8731 396.733 29.7102C396.742 31.5379 396.293 33.1525 395.384 34.554C394.474 35.946 393.182 37.035 391.506 37.821C389.839 38.607 387.85 39 385.54 39H374.673V9.90909H380.81V34.0568H385.54C386.648 34.0568 387.58 33.858 388.338 33.4602C389.096 33.053 389.669 32.518 390.057 31.8551C390.455 31.1828 390.649 30.4489 390.639 29.6534C390.649 28.4981 390.213 27.5227 389.332 26.7273C388.461 25.9223 387.197 25.5199 385.54 25.5199H378.608V20.6619ZM405.241 9.90909V39H399.105V9.90909H405.241Z" fill="white"/>
<path d="M21.147 65.8203H16.4808C16.3956 65.2166 16.2216 64.6804 15.9588 64.2116C15.696 63.7358 15.3587 63.331 14.9467 62.9972C14.5348 62.6634 14.0589 62.4077 13.5192 62.2301C12.9865 62.0526 12.4077 61.9638 11.7827 61.9638C10.6534 61.9638 9.66974 62.2443 8.83168 62.8054C7.99361 63.3594 7.34375 64.169 6.8821 65.2344C6.42045 66.2926 6.18963 67.5781 6.18963 69.0909C6.18963 70.6463 6.42045 71.9531 6.8821 73.0114C7.35085 74.0696 8.00426 74.8686 8.84233 75.4084C9.6804 75.9482 10.6499 76.218 11.7507 76.218C12.3686 76.218 12.9403 76.1364 13.4659 75.973C13.9986 75.8097 14.4709 75.5717 14.8828 75.2592C15.2947 74.9396 15.6357 74.5526 15.9055 74.098C16.1825 73.6435 16.3743 73.125 16.4808 72.5426L21.147 72.5639C21.0263 73.5653 20.7244 74.5312 20.2415 75.4616C19.7656 76.3849 19.1229 77.2124 18.3132 77.9439C17.5107 78.6683 16.5518 79.2436 15.4368 79.6697C14.3288 80.0888 13.0753 80.2983 11.6761 80.2983C9.73011 80.2983 7.99006 79.858 6.45597 78.9773C4.92898 78.0966 3.72159 76.8217 2.83381 75.1527C1.95312 73.4837 1.51278 71.4631 1.51278 69.0909C1.51278 66.7116 1.96023 64.6875 2.85511 63.0185C3.75 61.3494 4.96449 60.0781 6.49858 59.2045C8.03267 58.3239 9.75852 57.8835 11.6761 57.8835C12.9403 57.8835 14.1122 58.0611 15.1918 58.4162C16.2784 58.7713 17.2408 59.2898 18.0788 59.9716C18.9169 60.6463 19.5987 61.4737 20.1243 62.4538C20.657 63.4339 20.9979 64.5561 21.147 65.8203ZM24.3697 80V63.6364H28.908V69.9858H30.1864L34.6396 63.6364H39.9663L34.1815 71.7543L40.0302 80H34.6396L30.6019 74.1939H28.908V80H24.3697ZM48.6674 80.3196C47.0126 80.3196 45.5815 79.968 44.3741 79.2649C43.1738 78.5547 42.247 77.5675 41.5936 76.3033C40.9402 75.032 40.6135 73.5582 40.6135 71.8821C40.6135 70.1918 40.9402 68.7145 41.5936 67.4503C42.247 66.179 43.1738 65.1918 44.3741 64.4886C45.5815 63.7784 47.0126 63.4233 48.6674 63.4233C50.3223 63.4233 51.7498 63.7784 52.9501 64.4886C54.1575 65.1918 55.0879 66.179 55.7413 67.4503C56.3947 68.7145 56.7214 70.1918 56.7214 71.8821C56.7214 73.5582 56.3947 75.032 55.7413 76.3033C55.0879 77.5675 54.1575 78.5547 52.9501 79.2649C51.7498 79.968 50.3223 80.3196 48.6674 80.3196ZM48.6887 76.804C49.4416 76.804 50.0701 76.5909 50.5744 76.1648C51.0787 75.7315 51.4586 75.142 51.7143 74.3963C51.9771 73.6506 52.1085 72.8018 52.1085 71.8501C52.1085 70.8984 51.9771 70.0497 51.7143 69.304C51.4586 68.5582 51.0787 67.9687 50.5744 67.5355C50.0701 67.1023 49.4416 66.8857 48.6887 66.8857C47.9288 66.8857 47.2896 67.1023 46.7711 67.5355C46.2598 67.9687 45.8727 68.5582 45.6099 69.304C45.3542 70.0497 45.2264 70.8984 45.2264 71.8501C45.2264 72.8018 45.3542 73.6506 45.6099 74.3963C45.8727 75.142 46.2598 75.7315 46.7711 76.1648C47.2896 76.5909 47.9288 76.804 48.6887 76.804ZM73.2768 57.6278L74.6618 60.5895C74.2001 60.973 73.6887 61.2571 73.1277 61.4418C72.5666 61.6193 71.8954 61.7365 71.1142 61.7933C70.34 61.8501 69.3954 61.8892 68.2804 61.9105C67.0162 61.9247 65.9863 62.1271 65.1909 62.5178C64.3954 62.9084 63.7917 63.5227 63.3798 64.3608C62.9679 65.1918 62.698 66.2784 62.5701 67.6207H62.7299C63.22 66.6193 63.9089 65.8452 64.7967 65.2983C65.6916 64.7514 66.796 64.478 68.1099 64.478C69.502 64.478 70.72 64.7834 71.764 65.3942C72.8152 66.005 73.6319 66.8821 74.2143 68.0256C74.7967 69.169 75.0879 70.5398 75.0879 72.1378C75.0879 73.7997 74.7612 75.245 74.1078 76.4737C73.4615 77.6953 72.5417 78.6435 71.3485 79.3182C70.1554 79.9858 68.7349 80.3196 67.0872 80.3196C65.4324 80.3196 64.0048 79.9716 62.8045 79.2756C61.6113 78.5795 60.688 77.5533 60.0346 76.1967C59.3883 74.8402 59.0652 73.1712 59.0652 71.1896V69.8473C59.0652 65.9055 59.8322 62.983 61.3663 61.0795C62.9004 59.1761 65.1554 58.2102 68.1312 58.1818C68.9409 58.1676 69.6724 58.1641 70.3258 58.1712C70.9792 58.1783 71.551 58.1463 72.041 58.0753C72.5382 58.0043 72.9501 57.8551 73.2768 57.6278ZM67.1085 76.804C67.8045 76.804 68.4011 76.6229 68.8983 76.2607C69.4025 75.8984 69.7896 75.38 70.0595 74.7053C70.3365 74.0305 70.475 73.2244 70.475 72.2869C70.475 71.3565 70.3365 70.5682 70.0595 69.9219C69.7896 69.2685 69.4025 68.7713 68.8983 68.4304C68.394 68.0895 67.7903 67.919 67.0872 67.919C66.5616 67.919 66.0893 68.0149 65.6703 68.2067C65.2512 68.3984 64.8926 68.6825 64.5943 69.0589C64.3031 69.4283 64.0758 69.8864 63.9125 70.4332C63.7562 70.973 63.6781 71.5909 63.6781 72.2869C63.6781 73.6861 63.9799 74.7905 64.5836 75.6001C65.1944 76.4027 66.036 76.804 67.1085 76.804ZM87.6882 80V67.1946H84.62C83.7891 67.1946 83.157 67.3864 82.7237 67.7699C82.2905 68.1534 82.0774 68.608 82.0845 69.1335C82.0774 69.6662 82.2834 70.1172 82.7024 70.4865C83.1286 70.8487 83.7536 71.0298 84.5774 71.0298H89.201V74.098H84.5774C83.1783 74.098 81.9673 73.8849 80.9446 73.4588C79.9219 73.0327 79.1335 72.4396 78.5795 71.6797C78.0256 70.9126 77.7521 70.0213 77.7592 69.0057C77.7521 67.9403 78.0256 67.0064 78.5795 66.2038C79.1335 65.3942 79.9254 64.7656 80.9553 64.3182C81.9922 63.8636 83.2138 63.6364 84.62 63.6364H91.9176V80H87.6882ZM77.2905 80L81.8395 71.4773H86.1754L81.6371 80H77.2905ZM106.832 70.0071V73.576H98.2884V70.0071H106.832ZM99.7798 63.6364V80H95.4439V63.6364H99.7798ZM109.677 63.6364V80H105.373V63.6364H109.677ZM116.042 68.6648H120.932C123.098 68.6648 124.789 69.1832 126.003 70.2202C127.218 71.25 127.825 72.6278 127.825 74.3537C127.825 75.4759 127.551 76.4631 127.005 77.3153C126.458 78.1605 125.669 78.821 124.64 79.2969C123.61 79.7656 122.374 80 120.932 80H113.198V63.6364H117.534V76.4311H120.932C121.692 76.4311 122.317 76.2393 122.807 75.8558C123.297 75.4723 123.546 74.9822 123.553 74.3857C123.546 73.7536 123.297 73.2386 122.807 72.8409C122.317 72.4361 121.692 72.2337 120.932 72.2337H116.042V68.6648ZM129.583 80V63.6364H134.121V80H129.583ZM145.206 80.3196C143.523 80.3196 142.074 79.9787 140.859 79.2969C139.652 78.608 138.722 77.6349 138.068 76.3778C137.415 75.1136 137.088 73.6186 137.088 71.8928C137.088 70.2095 137.415 68.7322 138.068 67.4609C138.722 66.1896 139.641 65.1989 140.827 64.4886C142.021 63.7784 143.42 63.4233 145.025 63.4233C146.104 63.4233 147.109 63.5973 148.04 63.9453C148.977 64.2862 149.794 64.8011 150.49 65.4901C151.193 66.179 151.74 67.0455 152.131 68.0895C152.521 69.1264 152.717 70.3409 152.717 71.733V72.9794H138.899V70.1669H148.445C148.445 69.5135 148.303 68.9347 148.018 68.4304C147.734 67.9261 147.34 67.532 146.836 67.2479C146.339 66.9567 145.76 66.8111 145.099 66.8111C144.411 66.8111 143.8 66.9709 143.267 67.2905C142.741 67.603 142.33 68.0256 142.031 68.5582C141.733 69.0838 141.58 69.6697 141.573 70.3161V72.9901C141.573 73.7997 141.722 74.4993 142.021 75.0888C142.326 75.6783 142.756 76.1328 143.31 76.4524C143.864 76.772 144.521 76.9318 145.281 76.9318C145.785 76.9318 146.246 76.8608 146.665 76.7188C147.085 76.5767 147.443 76.3636 147.741 76.0795C148.04 75.7955 148.267 75.4474 148.423 75.0355L152.621 75.3125C152.408 76.321 151.971 77.2017 151.31 77.9545C150.657 78.7003 149.812 79.2827 148.775 79.7017C147.745 80.1136 146.555 80.3196 145.206 80.3196ZM166.958 74.0128L172.849 63.6364H177.323V80H172.998V69.5916L167.128 80H162.622V63.6364H166.958V74.0128ZM180.12 75.3658H184.52C184.541 75.9055 184.782 76.3317 185.244 76.6442C185.706 76.9567 186.302 77.1129 187.034 77.1129C187.773 77.1129 188.394 76.9425 188.898 76.6016C189.403 76.2536 189.655 75.7564 189.655 75.1101C189.655 74.7124 189.555 74.3679 189.356 74.0767C189.157 73.7784 188.881 73.544 188.525 73.3736C188.17 73.2031 187.758 73.1179 187.29 73.1179H184.935V70.1456H187.29C187.993 70.1456 188.532 69.9822 188.909 69.6555C189.292 69.3288 189.484 68.9205 189.484 68.4304C189.484 67.8764 189.285 67.4325 188.888 67.0987C188.497 66.7578 187.968 66.5874 187.3 66.5874C186.626 66.5874 186.064 66.7401 185.617 67.0455C185.177 67.3437 184.949 67.7344 184.935 68.2173H180.557C180.571 67.2372 180.866 66.3885 181.441 65.6712C182.023 64.9538 182.805 64.3999 183.785 64.0092C184.772 63.6186 185.876 63.4233 187.098 63.4233C188.433 63.4233 189.584 63.6115 190.55 63.9879C191.523 64.3572 192.268 64.8864 192.787 65.5753C193.312 66.2642 193.575 67.0845 193.575 68.0362C193.575 68.9027 193.291 69.6271 192.723 70.2095C192.155 70.7919 191.359 71.2074 190.336 71.456V71.6264C191.011 71.669 191.622 71.8501 192.169 72.1697C192.716 72.4893 193.153 72.9297 193.479 73.4908C193.806 74.0447 193.969 74.7017 193.969 75.4616C193.969 76.4773 193.671 77.3473 193.074 78.0717C192.485 78.7962 191.668 79.3537 190.624 79.7443C189.587 80.1278 188.398 80.3196 187.055 80.3196C185.748 80.3196 184.577 80.1314 183.54 79.755C182.51 79.3714 181.689 78.8104 181.079 78.0717C180.475 77.3331 180.155 76.4311 180.12 75.3658ZM195.474 84.794V76.3991H196.731C197.093 76.1719 197.385 75.8097 197.605 75.3125C197.832 74.8153 198.017 74.2294 198.159 73.5547C198.308 72.88 198.422 72.152 198.5 71.3707C198.585 70.5824 198.659 69.7869 198.723 68.9844L199.15 63.6364H211.699V76.3991H214.235V84.794H209.909V80H199.906V84.794H195.474ZM201.248 76.3991H207.417V67.1307H203.006L202.836 68.9844C202.715 70.7315 202.541 72.2159 202.314 73.4375C202.086 74.652 201.731 75.6392 201.248 76.3991ZM224.337 80.3196C222.654 80.3196 221.205 79.9787 219.99 79.2969C218.783 78.608 217.852 77.6349 217.199 76.3778C216.546 75.1136 216.219 73.6186 216.219 71.8928C216.219 70.2095 216.546 68.7322 217.199 67.4609C217.852 66.1896 218.772 65.1989 219.958 64.4886C221.151 63.7784 222.551 63.4233 224.156 63.4233C225.235 63.4233 226.24 63.5973 227.171 63.9453C228.108 64.2862 228.925 64.8011 229.621 65.4901C230.324 66.179 230.871 67.0455 231.262 68.0895C231.652 69.1264 231.847 70.3409 231.847 71.733V72.9794H218.03V70.1669H227.575C227.575 69.5135 227.433 68.9347 227.149 68.4304C226.865 67.9261 226.471 67.532 225.967 67.2479C225.47 66.9567 224.891 66.8111 224.23 66.8111C223.541 66.8111 222.931 66.9709 222.398 67.2905C221.872 67.603 221.46 68.0256 221.162 68.5582C220.864 69.0838 220.711 69.6697 220.704 70.3161V72.9901C220.704 73.7997 220.853 74.4993 221.151 75.0888C221.457 75.6783 221.887 76.1328 222.441 76.4524C222.994 76.772 223.651 76.9318 224.411 76.9318C224.916 76.9318 225.377 76.8608 225.796 76.7188C226.215 76.5767 226.574 76.3636 226.872 76.0795C227.171 75.7955 227.398 75.4474 227.554 75.0355L231.752 75.3125C231.539 76.321 231.102 77.2017 230.441 77.9545C229.788 78.7003 228.943 79.2827 227.906 79.7017C226.876 80.1136 225.686 80.3196 224.337 80.3196ZM233.85 80L233.829 76.3991H234.372C234.756 76.3991 235.086 76.3068 235.363 76.1222C235.647 75.9304 235.882 75.6214 236.066 75.1953C236.251 74.7692 236.396 74.2045 236.503 73.5014C236.61 72.7912 236.681 71.9176 236.716 70.8807L236.982 63.6364H249.426V80H245.1V67.2053H241.063L240.807 72.2017C240.743 73.5724 240.576 74.7514 240.306 75.7386C240.044 76.7259 239.678 77.5355 239.209 78.1676C238.74 78.7926 238.176 79.2543 237.515 79.5526C236.855 79.8509 236.088 80 235.214 80H233.85ZM257.28 74.0128L263.171 63.6364H267.646V80H263.32V69.5916L257.45 80H252.944V63.6364H257.28V74.0128ZM280.872 80V67.1946H277.804C276.973 67.1946 276.341 67.3864 275.907 67.7699C275.474 68.1534 275.261 68.608 275.268 69.1335C275.261 69.6662 275.467 70.1172 275.886 70.4865C276.312 70.8487 276.937 71.0298 277.761 71.0298H282.385V74.098H277.761C276.362 74.098 275.151 73.8849 274.128 73.4588C273.105 73.0327 272.317 72.4396 271.763 71.6797C271.209 70.9126 270.936 70.0213 270.943 69.0057C270.936 67.9403 271.209 67.0064 271.763 66.2038C272.317 65.3942 273.109 64.7656 274.139 64.3182C275.176 63.8636 276.397 63.6364 277.804 63.6364H285.101V80H280.872ZM270.474 80L275.023 71.4773H279.359L274.821 80H270.474ZM293.56 77.017L293.443 78.1889C293.35 79.1264 293.173 80.0604 292.91 80.9908C292.654 81.9283 292.385 82.777 292.1 83.5369C291.824 84.2969 291.6 84.8935 291.429 85.3267H288.489C288.596 84.9077 288.741 84.3217 288.926 83.5689C289.11 82.8232 289.284 81.9851 289.448 81.0547C289.611 80.1243 289.714 79.1761 289.757 78.2102L289.81 77.017H293.56ZM0.852273 116L0.830966 112.399H1.37429C1.75781 112.399 2.08807 112.307 2.36506 112.122C2.64915 111.93 2.88352 111.621 3.06818 111.195C3.25284 110.769 3.39844 110.205 3.50497 109.501C3.61151 108.791 3.68253 107.918 3.71804 106.881L3.98438 99.6364H16.4276V116H12.1023V103.205H8.06463L7.80895 108.202C7.74503 109.572 7.57813 110.751 7.30824 111.739C7.04545 112.726 6.67969 113.536 6.21094 114.168C5.74219 114.793 5.17756 115.254 4.51705 115.553C3.85653 115.851 3.08949 116 2.21591 116H0.852273ZM24.612 116.309C23.568 116.309 22.6376 116.128 21.8208 115.766C21.0041 115.396 20.3578 114.853 19.8819 114.136C19.4132 113.411 19.1788 112.509 19.1788 111.43C19.1788 110.521 19.3457 109.757 19.6795 109.139C20.0133 108.521 20.4679 108.024 21.0431 107.648C21.6184 107.271 22.2718 106.987 23.0034 106.795C23.742 106.604 24.5162 106.469 25.3258 106.391C26.2775 106.291 27.0446 106.199 27.627 106.114C28.2093 106.021 28.6319 105.886 28.8947 105.709C29.1575 105.531 29.2889 105.268 29.2889 104.92V104.857C29.2889 104.182 29.0758 103.66 28.6497 103.29C28.2306 102.921 27.6341 102.737 26.8599 102.737C26.0431 102.737 25.3933 102.918 24.9103 103.28C24.4274 103.635 24.1078 104.082 23.9515 104.622L19.7541 104.281C19.9672 103.287 20.3862 102.428 21.0112 101.703C21.6362 100.972 22.4423 100.411 23.4295 100.02C24.4238 99.6222 25.5744 99.4233 26.8812 99.4233C27.7903 99.4233 28.6603 99.5298 29.4913 99.7429C30.3294 99.956 31.0716 100.286 31.7179 100.734C32.3713 101.181 32.8862 101.756 33.2626 102.46C33.639 103.156 33.8272 103.99 33.8272 104.963V116H29.5233V113.731H29.3954C29.1326 114.242 28.7811 114.693 28.3407 115.084C27.9004 115.467 27.3713 115.769 26.7534 115.989C26.1355 116.202 25.4217 116.309 24.612 116.309ZM25.9118 113.177C26.5794 113.177 27.1689 113.045 27.6802 112.783C28.1916 112.513 28.5929 112.151 28.8841 111.696C29.1752 111.241 29.3208 110.727 29.3208 110.151V108.415C29.1788 108.507 28.9835 108.592 28.7349 108.67C28.4934 108.741 28.22 108.809 27.9146 108.873C27.6092 108.93 27.3038 108.983 26.9984 109.033C26.693 109.075 26.416 109.114 26.1674 109.15C25.6348 109.228 25.1696 109.352 24.7718 109.523C24.3741 109.693 24.0652 109.924 23.845 110.215C23.6248 110.499 23.5147 110.854 23.5147 111.281C23.5147 111.898 23.7385 112.371 24.1859 112.697C24.6404 113.017 25.2157 113.177 25.9118 113.177ZM37.3482 116V99.6364H41.8865V105.986H43.165L47.6181 99.6364H52.9448L47.16 107.754L53.0087 116H47.6181L43.5804 110.194H41.8865V116H37.3482ZM61.646 116.32C59.9911 116.32 58.56 115.968 57.3526 115.265C56.1523 114.555 55.2255 113.567 54.5721 112.303C53.9187 111.032 53.592 109.558 53.592 107.882C53.592 106.192 53.9187 104.714 54.5721 103.45C55.2255 102.179 56.1523 101.192 57.3526 100.489C58.56 99.7784 59.9911 99.4233 61.646 99.4233C63.3008 99.4233 64.7283 99.7784 65.9286 100.489C67.136 101.192 68.0664 102.179 68.7198 103.45C69.3732 104.714 69.6999 106.192 69.6999 107.882C69.6999 109.558 69.3732 111.032 68.7198 112.303C68.0664 113.567 67.136 114.555 65.9286 115.265C64.7283 115.968 63.3008 116.32 61.646 116.32ZM61.6673 112.804C62.4201 112.804 63.0487 112.591 63.5529 112.165C64.0572 111.732 64.4371 111.142 64.6928 110.396C64.9556 109.651 65.087 108.802 65.087 107.85C65.087 106.898 64.9556 106.05 64.6928 105.304C64.4371 104.558 64.0572 103.969 63.5529 103.536C63.0487 103.102 62.4201 102.886 61.6673 102.886C60.9073 102.886 60.2681 103.102 59.7496 103.536C59.2383 103.969 58.8512 104.558 58.5884 105.304C58.3327 106.05 58.2049 106.898 58.2049 107.85C58.2049 108.802 58.3327 109.651 58.5884 110.396C58.8512 111.142 59.2383 111.732 59.7496 112.165C60.2681 112.591 60.9073 112.804 61.6673 112.804ZM72.6509 116V99.6364H77.1893V105.986H78.4677L82.9208 99.6364H88.2475L82.4627 107.754L88.3114 116H82.9208L78.8832 110.194H77.1893V116H72.6509ZM90.229 122.136V99.6364H94.7035V102.385H94.9059C95.1048 101.945 95.3924 101.497 95.7688 101.043C96.1523 100.581 96.6495 100.197 97.2603 99.892C97.8782 99.5795 98.6452 99.4233 99.5614 99.4233C100.755 99.4233 101.855 99.7358 102.864 100.361C103.873 100.979 104.679 101.913 105.282 103.163C105.886 104.406 106.188 105.964 106.188 107.839C106.188 109.665 105.893 111.206 105.304 112.463C104.721 113.713 103.926 114.661 102.917 115.308C101.916 115.947 100.794 116.266 99.5508 116.266C98.6701 116.266 97.9208 116.121 97.3029 115.83C96.6921 115.538 96.1914 115.173 95.8008 114.732C95.4102 114.285 95.1119 113.834 94.9059 113.379H94.7674V122.136H90.229ZM94.6715 107.818C94.6715 108.791 94.8065 109.64 95.0763 110.364C95.3462 111.089 95.7369 111.653 96.2482 112.058C96.7596 112.456 97.381 112.655 98.1126 112.655C98.8512 112.655 99.4762 112.452 99.9876 112.048C100.499 111.636 100.886 111.067 101.149 110.343C101.419 109.612 101.554 108.77 101.554 107.818C101.554 106.874 101.422 106.043 101.159 105.325C100.897 104.608 100.51 104.047 99.9982 103.642C99.4869 103.237 98.8583 103.035 98.1126 103.035C97.3739 103.035 96.7489 103.23 96.2376 103.621C95.7333 104.011 95.3462 104.565 95.0763 105.283C94.8065 106 94.6715 106.845 94.6715 107.818ZM113.88 116.309C112.836 116.309 111.905 116.128 111.088 115.766C110.272 115.396 109.625 114.853 109.15 114.136C108.681 113.411 108.446 112.509 108.446 111.43C108.446 110.521 108.613 109.757 108.947 109.139C109.281 108.521 109.735 108.024 110.311 107.648C110.886 107.271 111.539 106.987 112.271 106.795C113.01 106.604 113.784 106.469 114.593 106.391C115.545 106.291 116.312 106.199 116.895 106.114C117.477 106.021 117.9 105.886 118.162 105.709C118.425 105.531 118.556 105.268 118.556 104.92V104.857C118.556 104.182 118.343 103.66 117.917 103.29C117.498 102.921 116.902 102.737 116.127 102.737C115.311 102.737 114.661 102.918 114.178 103.28C113.695 103.635 113.375 104.082 113.219 104.622L109.022 104.281C109.235 103.287 109.654 102.428 110.279 101.703C110.904 100.972 111.71 100.411 112.697 100.02C113.691 99.6222 114.842 99.4233 116.149 99.4233C117.058 99.4233 117.928 99.5298 118.759 99.7429C119.597 99.956 120.339 100.286 120.985 100.734C121.639 101.181 122.154 101.756 122.53 102.46C122.907 103.156 123.095 103.99 123.095 104.963V116H118.791V113.731H118.663C118.4 114.242 118.049 114.693 117.608 115.084C117.168 115.467 116.639 115.769 116.021 115.989C115.403 116.202 114.689 116.309 113.88 116.309ZM115.179 113.177C115.847 113.177 116.436 113.045 116.948 112.783C117.459 112.513 117.86 112.151 118.152 111.696C118.443 111.241 118.588 110.727 118.588 110.151V108.415C118.446 108.507 118.251 108.592 118.002 108.67C117.761 108.741 117.488 108.809 117.182 108.873C116.877 108.93 116.571 108.983 116.266 109.033C115.961 109.075 115.684 109.114 115.435 109.15C114.902 109.228 114.437 109.352 114.039 109.523C113.642 109.693 113.333 109.924 113.113 110.215C112.892 110.499 112.782 110.854 112.782 111.281C112.782 111.898 113.006 112.371 113.453 112.697C113.908 113.017 114.483 113.177 115.179 113.177ZM134.009 116.32C132.333 116.32 130.891 115.964 129.684 115.254C128.484 114.537 127.56 113.543 126.914 112.271C126.275 111 125.955 109.537 125.955 107.882C125.955 106.206 126.278 104.736 126.925 103.472C127.578 102.2 128.505 101.21 129.705 100.499C130.906 99.782 132.333 99.4233 133.988 99.4233C135.415 99.4233 136.665 99.6825 137.738 100.201C138.81 100.719 139.659 101.447 140.284 102.385C140.909 103.322 141.254 104.423 141.317 105.688H137.035C136.914 104.871 136.594 104.214 136.076 103.717C135.565 103.212 134.893 102.96 134.062 102.96C133.359 102.96 132.745 103.152 132.219 103.536C131.701 103.912 131.296 104.462 131.005 105.187C130.714 105.911 130.568 106.788 130.568 107.818C130.568 108.862 130.71 109.75 130.994 110.482C131.286 111.213 131.694 111.771 132.219 112.154C132.745 112.538 133.359 112.729 134.062 112.729C134.581 112.729 135.046 112.623 135.458 112.41C135.877 112.197 136.222 111.888 136.491 111.483C136.768 111.071 136.95 110.577 137.035 110.002H141.317C141.246 111.252 140.906 112.353 140.295 113.305C139.691 114.249 138.857 114.988 137.791 115.521C136.726 116.053 135.465 116.32 134.009 116.32ZM151.617 116.32C149.962 116.32 148.531 115.968 147.323 115.265C146.123 114.555 145.196 113.567 144.543 112.303C143.889 111.032 143.563 109.558 143.563 107.882C143.563 106.192 143.889 104.714 144.543 103.45C145.196 102.179 146.123 101.192 147.323 100.489C148.531 99.7784 149.962 99.4233 151.617 99.4233C153.271 99.4233 154.699 99.7784 155.899 100.489C157.107 101.192 158.037 102.179 158.691 103.45C159.344 104.714 159.671 106.192 159.671 107.882C159.671 109.558 159.344 111.032 158.691 112.303C158.037 113.567 157.107 114.555 155.899 115.265C154.699 115.968 153.271 116.32 151.617 116.32ZM151.638 112.804C152.391 112.804 153.019 112.591 153.524 112.165C154.028 111.732 154.408 111.142 154.664 110.396C154.926 109.651 155.058 108.802 155.058 107.85C155.058 106.898 154.926 106.05 154.664 105.304C154.408 104.558 154.028 103.969 153.524 103.536C153.019 103.102 152.391 102.886 151.638 102.886C150.878 102.886 150.239 103.102 149.72 103.536C149.209 103.969 148.822 104.558 148.559 105.304C148.303 106.05 148.176 106.898 148.176 107.85C148.176 108.802 148.303 109.651 148.559 110.396C148.822 111.142 149.209 111.732 149.72 112.165C150.239 112.591 150.878 112.804 151.638 112.804ZM176.823 99.6364V116H172.519V99.6364H176.823ZM174.724 106.817V110.396C174.376 110.553 173.943 110.702 173.424 110.844C172.906 110.979 172.362 111.089 171.794 111.174C171.226 111.259 170.693 111.302 170.196 111.302C167.845 111.302 165.995 110.819 164.646 109.853C163.296 108.88 162.622 107.328 162.622 105.197V99.6151H166.904V105.197C166.904 105.83 167.011 106.33 167.224 106.7C167.444 107.069 167.792 107.335 168.268 107.499C168.751 107.655 169.394 107.733 170.196 107.733C170.942 107.733 171.673 107.655 172.391 107.499C173.108 107.342 173.886 107.115 174.724 106.817ZM191.735 106.007V109.576H183.191V106.007H191.735ZM184.682 99.6364V116H180.346V99.6364H184.682ZM194.579 99.6364V116H190.275V99.6364H194.579ZM200.945 104.665H205.835C208.001 104.665 209.691 105.183 210.906 106.22C212.12 107.25 212.727 108.628 212.727 110.354C212.727 111.476 212.454 112.463 211.907 113.315C211.36 114.161 210.572 114.821 209.542 115.297C208.512 115.766 207.276 116 205.835 116H198.1V99.6364H202.436V112.431H205.835C206.594 112.431 207.219 112.239 207.71 111.856C208.2 111.472 208.448 110.982 208.455 110.386C208.448 109.754 208.2 109.239 207.71 108.841C207.219 108.436 206.594 108.234 205.835 108.234H200.945V104.665ZM214.485 116V99.6364H219.023V116H214.485ZM230.108 116.32C228.425 116.32 226.976 115.979 225.762 115.297C224.554 114.608 223.624 113.635 222.971 112.378C222.317 111.114 221.99 109.619 221.99 107.893C221.99 106.21 222.317 104.732 222.971 103.461C223.624 102.19 224.544 101.199 225.73 100.489C226.923 99.7784 228.322 99.4233 229.927 99.4233C231.007 99.4233 232.012 99.5973 232.942 99.9453C233.88 100.286 234.696 100.801 235.392 101.49C236.096 102.179 236.642 103.045 237.033 104.089C237.424 105.126 237.619 106.341 237.619 107.733V108.979H223.801V106.167H233.347C233.347 105.513 233.205 104.935 232.921 104.43C232.637 103.926 232.243 103.532 231.738 103.248C231.241 102.957 230.662 102.811 230.002 102.811C229.313 102.811 228.702 102.971 228.169 103.29C227.644 103.603 227.232 104.026 226.934 104.558C226.635 105.084 226.483 105.67 226.475 106.316V108.99C226.475 109.8 226.625 110.499 226.923 111.089C227.228 111.678 227.658 112.133 228.212 112.452C228.766 112.772 229.423 112.932 230.183 112.932C230.687 112.932 231.149 112.861 231.568 112.719C231.987 112.577 232.346 112.364 232.644 112.08C232.942 111.795 233.169 111.447 233.326 111.036L237.523 111.312C237.31 112.321 236.873 113.202 236.213 113.955C235.559 114.7 234.714 115.283 233.677 115.702C232.647 116.114 231.458 116.32 230.108 116.32ZM257.197 110.982L261.629 99.6364H265.081L258.699 116H255.684L249.452 99.6364H252.893L257.197 110.982ZM251.86 99.6364V116H247.524V99.6364H251.86ZM262.758 116V99.6364H267.041V116H262.758ZM275.218 116.309C274.173 116.309 273.243 116.128 272.426 115.766C271.61 115.396 270.963 114.853 270.487 114.136C270.019 113.411 269.784 112.509 269.784 111.43C269.784 110.521 269.951 109.757 270.285 109.139C270.619 108.521 271.073 108.024 271.649 107.648C272.224 107.271 272.877 106.987 273.609 106.795C274.347 106.604 275.122 106.469 275.931 106.391C276.883 106.291 277.65 106.199 278.232 106.114C278.815 106.021 279.237 105.886 279.5 105.709C279.763 105.531 279.894 105.268 279.894 104.92V104.857C279.894 104.182 279.681 103.66 279.255 103.29C278.836 102.921 278.24 102.737 277.465 102.737C276.649 102.737 275.999 102.918 275.516 103.28C275.033 103.635 274.713 104.082 274.557 104.622L270.36 104.281C270.573 103.287 270.992 102.428 271.617 101.703C272.242 100.972 273.048 100.411 274.035 100.02C275.029 99.6222 276.18 99.4233 277.487 99.4233C278.396 99.4233 279.266 99.5298 280.097 99.7429C280.935 99.956 281.677 100.286 282.323 100.734C282.977 101.181 283.492 101.756 283.868 102.46C284.244 103.156 284.433 103.99 284.433 104.963V116H280.129V113.731H280.001C279.738 114.242 279.387 114.693 278.946 115.084C278.506 115.467 277.977 115.769 277.359 115.989C276.741 116.202 276.027 116.309 275.218 116.309ZM276.517 113.177C277.185 113.177 277.774 113.045 278.286 112.783C278.797 112.513 279.198 112.151 279.49 111.696C279.781 111.241 279.926 110.727 279.926 110.151V108.415C279.784 108.507 279.589 108.592 279.34 108.67C279.099 108.741 278.825 108.809 278.52 108.873C278.215 108.93 277.909 108.983 277.604 109.033C277.298 109.075 277.021 109.114 276.773 109.15C276.24 109.228 275.775 109.352 275.377 109.523C274.98 109.693 274.671 109.924 274.45 110.215C274.23 110.499 274.12 110.854 274.12 111.281C274.12 111.898 274.344 112.371 274.791 112.697C275.246 113.017 275.821 113.177 276.517 113.177ZM286.31 103.205V99.6364H301.14V103.205H295.866V116H291.541V103.205H286.31ZM310.763 116.32C309.079 116.32 307.631 115.979 306.416 115.297C305.209 114.608 304.278 113.635 303.625 112.378C302.971 111.114 302.645 109.619 302.645 107.893C302.645 106.21 302.971 104.732 303.625 103.461C304.278 102.19 305.198 101.199 306.384 100.489C307.577 99.7784 308.976 99.4233 310.581 99.4233C311.661 99.4233 312.666 99.5973 313.596 99.9453C314.534 100.286 315.351 100.801 316.047 101.49C316.75 102.179 317.297 103.045 317.687 104.089C318.078 105.126 318.273 106.341 318.273 107.733V108.979H304.456V106.167H314.001C314.001 105.513 313.859 104.935 313.575 104.43C313.291 103.926 312.897 103.532 312.393 103.248C311.895 102.957 311.317 102.811 310.656 102.811C309.967 102.811 309.356 102.971 308.824 103.29C308.298 103.603 307.886 104.026 307.588 104.558C307.29 105.084 307.137 105.67 307.13 106.316V108.99C307.13 109.8 307.279 110.499 307.577 111.089C307.883 111.678 308.312 112.133 308.866 112.452C309.42 112.772 310.077 112.932 310.837 112.932C311.341 112.932 311.803 112.861 312.222 112.719C312.641 112.577 313 112.364 313.298 112.08C313.596 111.795 313.824 111.447 313.98 111.036L318.177 111.312C317.964 112.321 317.528 113.202 316.867 113.955C316.214 114.7 315.368 115.283 314.331 115.702C313.302 116.114 312.112 116.32 310.763 116.32ZM321.235 122.136V99.6364H325.709V102.385H325.912C326.111 101.945 326.398 101.497 326.775 101.043C327.158 100.581 327.655 100.197 328.266 99.892C328.884 99.5795 329.651 99.4233 330.567 99.4233C331.76 99.4233 332.861 99.7358 333.87 100.361C334.878 100.979 335.684 101.913 336.288 103.163C336.892 104.406 337.194 105.964 337.194 107.839C337.194 109.665 336.899 111.206 336.309 112.463C335.727 113.713 334.932 114.661 333.923 115.308C332.922 115.947 331.8 116.266 330.557 116.266C329.676 116.266 328.927 116.121 328.309 115.83C327.698 115.538 327.197 115.173 326.807 114.732C326.416 114.285 326.118 113.834 325.912 113.379H325.773V122.136H321.235ZM325.677 107.818C325.677 108.791 325.812 109.64 326.082 110.364C326.352 111.089 326.743 111.653 327.254 112.058C327.765 112.456 328.387 112.655 329.118 112.655C329.857 112.655 330.482 112.452 330.993 112.048C331.505 111.636 331.892 111.067 332.155 110.343C332.425 109.612 332.559 108.77 332.559 107.818C332.559 106.874 332.428 106.043 332.165 105.325C331.903 104.608 331.515 104.047 331.004 103.642C330.493 103.237 329.864 103.035 329.118 103.035C328.38 103.035 327.755 103.23 327.243 103.621C326.739 104.011 326.352 104.565 326.082 105.283C325.812 106 325.677 106.845 325.677 107.818ZM344.555 110.013L350.447 99.6364H354.921V116H350.596V105.592L344.726 116H340.219V99.6364H344.555V110.013ZM363.225 116.309C362.181 116.309 361.251 116.128 360.434 115.766C359.617 115.396 358.971 114.853 358.495 114.136C358.026 113.411 357.792 112.509 357.792 111.43C357.792 110.521 357.959 109.757 358.293 109.139C358.627 108.521 359.081 108.024 359.656 107.648C360.232 107.271 360.885 106.987 361.617 106.795C362.355 106.604 363.129 106.469 363.939 106.391C364.891 106.291 365.658 106.199 366.24 106.114C366.823 106.021 367.245 105.886 367.508 105.709C367.771 105.531 367.902 105.268 367.902 104.92V104.857C367.902 104.182 367.689 103.66 367.263 103.29C366.844 102.921 366.247 102.737 365.473 102.737C364.656 102.737 364.007 102.918 363.524 103.28C363.041 103.635 362.721 104.082 362.565 104.622L358.367 104.281C358.58 103.287 358.999 102.428 359.624 101.703C360.249 100.972 361.056 100.411 362.043 100.02C363.037 99.6222 364.188 99.4233 365.494 99.4233C366.404 99.4233 367.274 99.5298 368.105 99.7429C368.943 99.956 369.685 100.286 370.331 100.734C370.985 101.181 371.499 101.756 371.876 102.46C372.252 103.156 372.441 103.99 372.441 104.963V116H368.137V113.731H368.009C367.746 114.242 367.394 114.693 366.954 115.084C366.514 115.467 365.985 115.769 365.367 115.989C364.749 116.202 364.035 116.309 363.225 116.309ZM364.525 113.177C365.193 113.177 365.782 113.045 366.294 112.783C366.805 112.513 367.206 112.151 367.497 111.696C367.789 111.241 367.934 110.727 367.934 110.151V108.415C367.792 108.507 367.597 108.592 367.348 108.67C367.107 108.741 366.833 108.809 366.528 108.873C366.222 108.93 365.917 108.983 365.612 109.033C365.306 109.075 365.029 109.114 364.781 109.15C364.248 109.228 363.783 109.352 363.385 109.523C362.987 109.693 362.678 109.924 362.458 110.215C362.238 110.499 362.128 110.854 362.128 111.281C362.128 111.898 362.352 112.371 362.799 112.697C363.254 113.017 363.829 113.177 364.525 113.177ZM375.003 116L374.981 112.399H375.525C375.908 112.399 376.238 112.307 376.515 112.122C376.8 111.93 377.034 111.621 377.219 111.195C377.403 110.769 377.549 110.205 377.655 109.501C377.762 108.791 377.833 107.918 377.868 106.881L378.135 99.6364H390.578V116H386.253V103.205H382.215L381.959 108.202C381.895 109.572 381.729 110.751 381.459 111.739C381.196 112.726 380.83 113.536 380.361 114.168C379.893 114.793 379.328 115.254 378.667 115.553C378.007 115.851 377.24 116 376.366 116H375.003ZM396.941 104.665H401.831C403.997 104.665 405.687 105.183 406.902 106.22C408.116 107.25 408.723 108.628 408.723 110.354C408.723 111.476 408.45 112.463 407.903 113.315C407.356 114.161 406.568 114.821 405.538 115.297C404.508 115.766 403.272 116 401.831 116H394.096V99.6364H398.432V112.431H401.831C402.591 112.431 403.216 112.239 403.706 111.856C404.196 111.472 404.444 110.982 404.451 110.386C404.444 109.754 404.196 109.239 403.706 108.841C403.216 108.436 402.591 108.234 401.831 108.234H396.941V104.665ZM410.481 116V99.6364H415.02V116H410.481ZM429.926 110.013L435.818 99.6364H440.292V116H435.967V105.592L430.097 116H425.59V99.6364H429.926V110.013ZM9.20455 152.32C7.52841 152.32 6.08665 151.964 4.87926 151.254C3.67898 150.537 2.75568 149.543 2.10938 148.271C1.47017 147 1.15057 145.537 1.15057 143.882C1.15057 142.206 1.47372 140.736 2.12003 139.472C2.77344 138.2 3.70028 137.21 4.90057 136.499C6.10085 135.782 7.52841 135.423 9.18324 135.423C10.6108 135.423 11.8608 135.683 12.9332 136.201C14.0057 136.719 14.8544 137.447 15.4794 138.385C16.1044 139.322 16.4489 140.423 16.5128 141.688H12.2301C12.1094 140.871 11.7898 140.214 11.2713 139.717C10.7599 139.212 10.0888 138.96 9.25781 138.96C8.55469 138.96 7.94034 139.152 7.41477 139.536C6.89631 139.912 6.49148 140.462 6.20028 141.187C5.90909 141.911 5.76349 142.788 5.76349 143.818C5.76349 144.862 5.90554 145.75 6.18963 146.482C6.48082 147.213 6.8892 147.771 7.41477 148.154C7.94034 148.538 8.55469 148.729 9.25781 148.729C9.77628 148.729 10.2415 148.623 10.6534 148.41C11.0724 148.197 11.4169 147.888 11.6868 147.483C11.9638 147.071 12.1449 146.577 12.2301 146.002H16.5128C16.4418 147.252 16.1009 148.353 15.4901 149.305C14.8864 150.249 14.0518 150.988 12.9865 151.521C11.9212 152.053 10.6605 152.32 9.20455 152.32ZM18.3026 139.205V135.636H33.1321V139.205H27.8587V152H23.5334V139.205H18.3026ZM42.7548 152.32C41.0716 152.32 39.6227 151.979 38.4082 151.297C37.2008 150.608 36.2704 149.635 35.617 148.378C34.9636 147.114 34.6369 145.619 34.6369 143.893C34.6369 142.21 34.9636 140.732 35.617 139.461C36.2704 138.19 37.1902 137.199 38.3762 136.489C39.5694 135.778 40.9686 135.423 42.5737 135.423C43.6532 135.423 44.6582 135.597 45.5886 135.945C46.5261 136.286 47.3429 136.801 48.0389 137.49C48.742 138.179 49.2889 139.045 49.6795 140.089C50.0701 141.126 50.2654 142.341 50.2654 143.733V144.979H36.448V142.167H45.9934C45.9934 141.513 45.8514 140.935 45.5673 140.43C45.2832 139.926 44.889 139.532 44.3848 139.248C43.8876 138.957 43.3088 138.811 42.6483 138.811C41.9593 138.811 41.3485 138.971 40.8159 139.29C40.2903 139.603 39.8784 140.026 39.5801 140.558C39.2818 141.084 39.1291 141.67 39.122 142.316V144.99C39.122 145.8 39.2711 146.499 39.5694 147.089C39.8748 147.678 40.3045 148.133 40.8585 148.452C41.4125 148.772 42.0694 148.932 42.8294 148.932C43.3336 148.932 43.7953 148.861 44.2143 148.719C44.6333 148.577 44.992 148.364 45.2903 148.08C45.5886 147.795 45.8159 147.447 45.9721 147.036L50.1696 147.312C49.9565 148.321 49.5197 149.202 48.8592 149.955C48.2058 150.7 47.3606 151.283 46.3237 151.702C45.2939 152.114 44.1042 152.32 42.7548 152.32ZM53.2271 152V135.636H57.7654V141.986H59.0439L63.497 135.636H68.8237L63.0389 143.754L68.8876 152H63.497L59.4593 146.194H57.7654V152H53.2271ZM69.8464 152L69.8251 148.399H70.3684C70.752 148.399 71.0822 148.307 71.3592 148.122C71.6433 147.93 71.8777 147.621 72.0623 147.195C72.247 146.769 72.3926 146.205 72.4991 145.501C72.6056 144.791 72.6767 143.918 72.7122 142.881L72.9785 135.636H85.4217V152H81.0964V139.205H77.0588L76.8031 144.202C76.7392 145.572 76.5723 146.751 76.3024 147.739C76.0396 148.726 75.6738 149.536 75.2051 150.168C74.7363 150.793 74.1717 151.254 73.5112 151.553C72.8507 151.851 72.0836 152 71.21 152H69.8464ZM96.3335 152.32C94.6786 152.32 93.2475 151.968 92.0401 151.265C90.8398 150.555 89.913 149.567 89.2596 148.303C88.6062 147.032 88.2795 145.558 88.2795 143.882C88.2795 142.192 88.6062 140.714 89.2596 139.45C89.913 138.179 90.8398 137.192 92.0401 136.489C93.2475 135.778 94.6786 135.423 96.3335 135.423C97.9883 135.423 99.4158 135.778 100.616 136.489C101.824 137.192 102.754 138.179 103.407 139.45C104.061 140.714 104.387 142.192 104.387 143.882C104.387 145.558 104.061 147.032 103.407 148.303C102.754 149.567 101.824 150.555 100.616 151.265C99.4158 151.968 97.9883 152.32 96.3335 152.32ZM96.3548 148.804C97.1076 148.804 97.7362 148.591 98.2404 148.165C98.7447 147.732 99.1246 147.142 99.3803 146.396C99.6431 145.651 99.7745 144.802 99.7745 143.85C99.7745 142.898 99.6431 142.05 99.3803 141.304C99.1246 140.558 98.7447 139.969 98.2404 139.536C97.7362 139.102 97.1076 138.886 96.3548 138.886C95.5948 138.886 94.9556 139.102 94.4371 139.536C93.9258 139.969 93.5387 140.558 93.2759 141.304C93.0202 142.05 92.8924 142.898 92.8924 143.85C92.8924 144.802 93.0202 145.651 93.2759 146.396C93.5387 147.142 93.9258 147.732 94.4371 148.165C94.9556 148.591 95.5948 148.804 96.3548 148.804Z" fill="#A3A3A3"/>
</svg>
